<svg width="1023" height="467" viewBox="0 0 1023 467" fill="none" xmlns="http://www.w3.org/2000/svg">
<path d="M382.208 285.853C376.541 285.853 371.12 284.867 365.946 282.896C360.853 280.842 356.336 277.884 352.393 274.023C348.451 270.079 345.33 265.355 343.03 259.85C340.812 254.263 339.704 247.896 339.704 240.748C339.704 234.587 340.853 228.877 343.153 223.619C345.453 218.36 348.615 213.76 352.64 209.816C356.746 205.79 361.51 202.668 366.931 200.45C372.352 198.232 378.225 197.123 384.549 197.123C392.434 197.123 399.58 198.848 405.986 202.299C412.393 205.667 417.156 210.309 420.278 216.224L402.413 229.904C400.688 226.453 398.101 223.701 394.652 221.647C391.202 219.511 387.547 218.443 383.687 218.443C380.812 218.443 378.184 219.018 375.802 220.168C373.42 221.318 371.325 222.92 369.518 224.974C367.794 227.028 366.438 229.493 365.453 232.368C364.549 235.162 364.098 238.243 364.098 241.611C364.098 245.062 364.59 248.184 365.576 250.977C366.562 253.771 367.917 256.194 369.642 258.248C371.449 260.22 373.584 261.781 376.048 262.931C378.512 263.999 381.264 264.533 384.303 264.533C388.163 264.533 391.859 263.588 395.391 261.699C398.923 259.727 402.126 256.975 405.001 253.442V276.857C398.43 282.855 390.832 285.853 382.208 285.853ZM403.769 255.907H387.629V238.653H423.604V285.237H403.769V255.907Z" fill="#0055FF"/>
<path d="M484.005 240.379C479.487 240.379 475.381 240.872 471.684 241.858C467.988 242.844 465.237 244.487 463.43 246.787V285.237H440.022V220.414H461.459V232.738C463.758 228.384 466.633 225.056 470.083 222.756C473.532 220.373 477.187 219.182 481.048 219.182C481.951 219.182 482.567 219.182 482.896 219.182C483.306 219.182 483.676 219.223 484.005 219.305V240.379Z" fill="#0055FF"/>
<path d="M529.345 286.469C523.678 286.469 518.626 285.607 514.191 283.881C509.756 282.074 506.019 279.65 502.98 276.61C500.023 273.571 497.764 270.079 496.204 266.135C494.643 262.192 493.863 258.043 493.863 253.688C493.863 247.444 495.218 241.734 497.928 236.558C500.639 231.3 504.622 227.11 509.879 223.988C515.136 220.784 521.624 219.182 529.345 219.182C537.065 219.182 543.554 220.743 548.811 223.865C554.067 226.987 558.051 231.095 560.761 236.189C563.472 241.283 564.827 246.828 564.827 252.826C564.827 254.058 564.745 255.332 564.581 256.646C564.498 257.878 564.375 258.988 564.211 259.973H518.749C518.914 262.274 519.53 264.164 520.597 265.642C521.747 267.039 523.144 268.066 524.786 268.723C526.511 269.381 528.277 269.709 530.084 269.709C532.63 269.709 535.012 269.134 537.23 267.984C539.529 266.834 541.049 265.232 541.788 263.178L561.624 268.847C559.899 272.297 557.476 275.337 554.355 277.966C551.316 280.595 547.702 282.69 543.513 284.251C539.324 285.73 534.601 286.469 529.345 286.469ZM518.257 245.924H539.694C539.447 243.788 538.831 241.981 537.846 240.502C536.942 239.023 535.71 237.873 534.15 237.051C532.671 236.23 530.946 235.819 528.975 235.819C527.004 235.819 525.238 236.23 523.678 237.051C522.199 237.873 520.967 239.023 519.981 240.502C519.078 241.981 518.503 243.788 518.257 245.924Z" fill="#0055FF"/>
<path d="M575.099 265.642C575.099 261.288 576.29 257.468 578.672 254.181C581.054 250.813 584.339 248.184 588.528 246.294C592.799 244.405 597.645 243.46 603.066 243.46C605.612 243.46 607.994 243.665 610.211 244.076C612.511 244.487 614.482 245.103 616.125 245.924V243.953C616.125 240.913 615.222 238.653 613.415 237.175C611.69 235.696 608.856 234.956 604.914 234.956C601.3 234.956 597.891 235.573 594.688 236.805C591.567 237.955 588.281 239.68 584.832 241.981L578.056 227.439C582.409 224.646 586.967 222.592 591.731 221.277C596.577 219.88 601.752 219.182 607.255 219.182C617.521 219.182 625.447 221.524 631.032 226.207C636.7 230.807 639.533 237.668 639.533 246.787V259.357C639.533 261.576 639.862 263.137 640.519 264.04C641.176 264.862 642.326 265.355 643.969 265.519V285.237C642.08 285.648 640.273 285.935 638.548 286.1C636.905 286.346 635.427 286.469 634.113 286.469C629.924 286.469 626.72 285.73 624.503 284.251C622.367 282.69 620.971 280.431 620.314 277.473L619.821 275.132C616.946 278.829 613.62 281.663 609.842 283.635C606.064 285.525 602.039 286.469 597.768 286.469C593.497 286.469 589.637 285.566 586.187 283.758C582.737 281.951 580.027 279.486 578.056 276.364C576.084 273.16 575.099 269.586 575.099 265.642ZM613.045 267.244C613.948 266.587 614.688 265.889 615.263 265.149C615.838 264.328 616.125 263.506 616.125 262.685V257.878C614.811 257.386 613.291 256.975 611.567 256.646C609.924 256.317 608.446 256.153 607.131 256.153C604.339 256.153 601.957 256.851 599.986 258.248C598.097 259.645 597.152 261.411 597.152 263.547C597.152 264.698 597.481 265.766 598.138 266.752C598.795 267.655 599.698 268.395 600.848 268.97C601.998 269.463 603.312 269.709 604.791 269.709C606.187 269.709 607.624 269.504 609.103 269.093C610.663 268.6 611.977 267.984 613.045 267.244Z" fill="#0055FF"/>
<path d="M703.324 281.663C701.189 282.567 698.889 283.43 696.425 284.251C694.043 284.991 691.579 285.566 689.033 285.977C686.569 286.387 684.146 286.593 681.764 286.593C678.232 286.593 674.988 286.018 672.031 284.867C669.074 283.635 666.692 281.663 664.885 278.952C663.16 276.159 662.298 272.42 662.298 267.737V238.037H654.29V220.414H662.298V200.08H685.706V220.414H698.396V238.037H685.706V259.481C685.706 261.617 686.158 263.137 687.061 264.04C687.965 264.862 689.197 265.273 690.757 265.273C691.907 265.273 693.221 265.067 694.7 264.656C696.178 264.246 697.657 263.753 699.135 263.178L703.324 281.663Z" fill="#0055FF"/>
<path d="M737.925 197.739H764.783L792.627 285.237H768.233L762.935 268.107H739.65L734.476 285.237H709.959L737.925 197.739ZM759.116 252.086L751.354 221.277L743.223 252.086H759.116Z" fill="#0055FF"/>
<path d="M806.055 285.237V197.739H843.755C848.026 197.739 851.968 198.601 855.582 200.327C859.196 202.052 862.317 204.394 864.946 207.351C867.574 210.227 869.586 213.472 870.982 217.087C872.461 220.702 873.2 224.358 873.2 228.055C873.2 233.231 871.968 238.119 869.504 242.72C867.122 247.321 863.755 251.1 859.401 254.058C855.13 256.934 850.12 258.371 844.371 258.371H830.079V285.237H806.055ZM830.079 237.421H842.769C843.755 237.421 844.699 237.134 845.603 236.558C846.506 235.983 847.246 234.997 847.82 233.601C848.478 232.204 848.806 230.356 848.806 228.055C848.806 225.59 848.436 223.701 847.697 222.386C847.04 220.989 846.178 220.045 845.11 219.552C844.124 218.977 843.139 218.689 842.153 218.689H830.079V237.421Z" fill="#0055FF"/>
<path d="M888.976 285.237V197.739H913V285.237H888.976Z" fill="#0055FF"/>
<path d="M143.21 293.453H286.348V304H143.21V293.453Z" fill="#0055FF"/>
<path d="M265.002 251.138C247.215 267.948 208.771 222.841 250.705 204.475L213.668 162L176.631 204.475C218.565 222.841 180.065 267.948 162.334 251.138C144.547 234.327 159.351 219.67 159.351 219.67L111 198.193L121.863 227.029L129.293 233.848V244.856L141.114 285.237H286.223L298.043 244.856V233.848L305.473 227.029L316.336 198.193L267.985 219.67C267.985 219.67 282.789 234.387 265.002 251.138Z" fill="#0055FF"/>
</svg>
