<svg width="300" height="100" viewBox="0 0 300 100" fill="none" xmlns="http://www.w3.org/2000/svg">
<path d="M125.408 74.7552C123.982 74.7552 122.618 74.5072 121.316 74.0112C120.035 73.4945 118.898 72.7505 117.906 71.7792C116.914 70.7872 116.129 69.5989 115.55 68.2142C114.992 66.8088 114.713 65.2072 114.713 63.4092C114.713 61.8592 115.003 60.4228 115.581 59.1001C116.16 57.7775 116.956 56.6201 117.968 55.6281C119.002 54.6155 120.2 53.8301 121.564 53.2721C122.928 52.7141 124.406 52.4351 125.997 52.4351C127.981 52.4351 129.779 52.8691 131.391 53.7371C133.003 54.5845 134.202 55.7521 134.987 57.2401L130.492 60.6811C130.058 59.8131 129.407 59.1208 128.539 58.6041C127.671 58.0668 126.752 57.7981 125.78 57.7981C125.057 57.7981 124.396 57.9428 123.796 58.2321C123.197 58.5215 122.67 58.9245 122.215 59.4411C121.781 59.9578 121.44 60.5778 121.192 61.3012C120.965 62.0038 120.851 62.7788 120.851 63.6262C120.851 64.4942 120.975 65.2795 121.223 65.9822C121.471 66.6848 121.812 67.2945 122.246 67.8112C122.701 68.3072 123.238 68.6999 123.858 68.9892C124.478 69.2579 125.171 69.3922 125.935 69.3922C126.907 69.3922 127.837 69.1545 128.725 68.6792C129.614 68.1832 130.42 67.4908 131.143 66.6022V72.4922C129.49 74.0009 127.578 74.7552 125.408 74.7552ZM130.833 67.2222H126.772V62.8822H135.824V74.6002H130.833V67.2222Z" fill="#0055FF"/>
<path d="M140.359 74.6002V52.5901H150.465C151.539 52.5901 152.531 52.8071 153.441 53.2411C154.35 53.6751 155.135 54.2641 155.797 55.0081C156.458 55.7315 156.964 56.5478 157.316 57.4571C157.688 58.3665 157.874 59.2861 157.874 60.2161C157.874 61.0635 157.75 61.8798 157.502 62.6652C157.254 63.4505 156.892 64.1738 156.417 64.8352C155.941 65.4758 155.373 66.0338 154.712 66.5092L159.362 74.6002H152.728L148.853 67.8422H146.404V74.6002H140.359ZM146.404 62.5722H150.217C150.465 62.5722 150.702 62.4792 150.93 62.2932C151.157 62.1072 151.343 61.8385 151.488 61.4872C151.653 61.1358 151.736 60.7122 151.736 60.2161C151.736 59.6995 151.643 59.2758 151.457 58.9451C151.291 58.5938 151.074 58.3251 150.806 58.1391C150.558 57.9531 150.31 57.8601 150.062 57.8601H146.404V62.5722Z" fill="#0055FF"/>
<path d="M178.514 69.3302V74.6002H162.828V52.5901H178.235V57.8601H168.873V60.9602H176.871V65.8582H168.873V69.3302H178.514Z" fill="#0055FF"/>
<path d="M187.959 52.5901H194.717L201.723 74.6002H195.585L194.252 70.2912H188.393L187.091 74.6002H180.922L187.959 52.5901ZM193.291 66.2612L191.338 58.5111L189.292 66.2612H193.291Z" fill="#0055FF"/>
<path d="M220.216 57.8601H213.892V74.6002H207.847V57.8601H201.492V52.5901H220.216V57.8601Z" fill="#0055FF"/>
<path d="M235.749 52.5901H242.507L249.513 74.6002H243.375L242.042 70.2912H236.183L234.881 74.6002H228.712L235.749 52.5901ZM241.081 66.2612L239.128 58.5111L237.082 66.2612H241.081Z" fill="#0055FF"/>
<path d="M252.891 74.6002V52.5901H262.377C263.452 52.5901 264.444 52.8071 265.353 53.2411C266.263 53.6751 267.048 54.2641 267.709 55.0081C268.371 55.7315 268.877 56.5478 269.228 57.4571C269.6 58.3665 269.786 59.2861 269.786 60.2161C269.786 61.5182 269.476 62.7478 268.856 63.9052C268.257 65.0625 267.41 66.0132 266.314 66.7572C265.24 67.4805 263.979 67.8422 262.532 67.8422H258.936V74.6002H252.891ZM258.936 62.5722H262.129C262.377 62.5722 262.615 62.4998 262.842 62.3552C263.07 62.2105 263.256 61.9625 263.4 61.6112C263.566 61.2598 263.648 60.7948 263.648 60.2161C263.648 59.5961 263.555 59.1208 263.369 58.7901C263.204 58.4388 262.987 58.2011 262.718 58.0771C262.47 57.9325 262.222 57.8601 261.974 57.8601H258.936V62.5722Z" fill="#0055FF"/>
<path d="M273.756 74.6002V52.5901H279.801V74.6002H273.756Z" fill="#0055FF"/>
<path d="M32.7483 71.0984H86.7734V75H32.7483V71.0984Z" fill="#0055FF"/>
<path d="M79.1252 56.5947C72.4119 62.5532 57.9019 46.565 73.7291 40.0552L59.7502 25L45.7712 40.0552C61.5984 46.565 47.0671 62.5532 40.3751 56.5947C33.6618 50.6362 39.2491 45.4411 39.2491 45.4411L21 37.8287L25.1002 48.0493L27.9045 50.4666V54.3682L32.3659 68.6813H87.1345L91.5958 54.3682V50.4666L94.4001 48.0493L98.5003 37.8287L80.2512 45.4411C80.2512 45.4411 85.8385 50.6574 79.1252 56.5947Z" fill="#0055FF"/>
</svg>
