<svg width="198" height="37" viewBox="0 0 198 37" fill="none" xmlns="http://www.w3.org/2000/svg">
<path d="M66.04 30.15C64.66 30.15 63.34 29.91 62.08 29.43C60.84 28.93 59.74 28.21 58.78 27.27C57.82 26.31 57.06 25.16 56.5 23.82C55.96 22.46 55.69 20.91 55.69 19.17C55.69 17.67 55.97 16.28 56.53 15C57.09 13.72 57.86 12.6 58.84 11.64C59.84 10.66 61 9.9 62.32 9.36C63.64 8.82 65.07 8.55 66.61 8.55C68.53 8.55 70.27 8.97 71.83 9.81C73.39 10.63 74.55 11.76 75.31 13.2L70.96 16.53C70.54 15.69 69.91 15.02 69.07 14.52C68.23 14 67.34 13.74 66.4 13.74C65.7 13.74 65.06 13.88 64.48 14.16C63.9 14.44 63.39 14.83 62.95 15.33C62.53 15.83 62.2 16.43 61.96 17.13C61.74 17.81 61.63 18.56 61.63 19.38C61.63 20.22 61.75 20.98 61.99 21.66C62.23 22.34 62.56 22.93 62.98 23.43C63.42 23.91 63.94 24.29 64.54 24.57C65.14 24.83 65.81 24.96 66.55 24.96C67.49 24.96 68.39 24.73 69.25 24.27C70.11 23.79 70.89 23.12 71.59 22.26V27.96C69.99 29.42 68.14 30.15 66.04 30.15ZM71.29 22.86H67.36V18.66H76.12V30H71.29V22.86ZM90.8277 19.08C89.7277 19.08 88.7277 19.2 87.8277 19.44C86.9277 19.68 86.2577 20.08 85.8177 20.64V30H80.1177V14.22H85.3377V17.22C85.8977 16.16 86.5977 15.35 87.4377 14.79C88.2777 14.21 89.1677 13.92 90.1077 13.92C90.3277 13.92 90.4777 13.92 90.5577 13.92C90.6577 13.92 90.7477 13.93 90.8277 13.95V19.08ZM101.868 30.3C100.488 30.3 99.2582 30.09 98.1782 29.67C97.0982 29.23 96.1882 28.64 95.4482 27.9C94.7282 27.16 94.1782 26.31 93.7982 25.35C93.4182 24.39 93.2282 23.38 93.2282 22.32C93.2282 20.8 93.5582 19.41 94.2182 18.15C94.8782 16.87 95.8482 15.85 97.1282 15.09C98.4082 14.31 99.9882 13.92 101.868 13.92C103.748 13.92 105.328 14.3 106.608 15.06C107.888 15.82 108.858 16.82 109.518 18.06C110.178 19.3 110.508 20.65 110.508 22.11C110.508 22.41 110.488 22.72 110.448 23.04C110.428 23.34 110.398 23.61 110.358 23.85H99.2882C99.3282 24.41 99.4782 24.87 99.7382 25.23C100.018 25.57 100.358 25.82 100.758 25.98C101.178 26.14 101.608 26.22 102.048 26.22C102.668 26.22 103.248 26.08 103.788 25.8C104.348 25.52 104.718 25.13 104.898 24.63L109.728 26.01C109.308 26.85 108.718 27.59 107.958 28.23C107.218 28.87 106.338 29.38 105.318 29.76C104.298 30.12 103.148 30.3 101.868 30.3ZM99.1682 20.43H104.388C104.328 19.91 104.178 19.47 103.938 19.11C103.718 18.75 103.418 18.47 103.038 18.27C102.678 18.07 102.258 17.97 101.778 17.97C101.298 17.97 100.868 18.07 100.488 18.27C100.128 18.47 99.8282 18.75 99.5882 19.11C99.3682 19.47 99.2282 19.91 99.1682 20.43ZM113.009 25.23C113.009 24.17 113.299 23.24 113.879 22.44C114.459 21.62 115.259 20.98 116.279 20.52C117.319 20.06 118.499 19.83 119.819 19.83C120.439 19.83 121.019 19.88 121.559 19.98C122.119 20.08 122.599 20.23 122.999 20.43V19.95C122.999 19.21 122.779 18.66 122.339 18.3C121.919 17.94 121.229 17.76 120.269 17.76C119.389 17.76 118.559 17.91 117.779 18.21C117.019 18.49 116.219 18.91 115.379 19.47L113.729 15.93C114.789 15.25 115.899 14.75 117.059 14.43C118.239 14.09 119.499 13.92 120.839 13.92C123.339 13.92 125.269 14.49 126.629 15.63C128.009 16.75 128.699 18.42 128.699 20.64V23.7C128.699 24.24 128.779 24.62 128.939 24.84C129.099 25.04 129.379 25.16 129.779 25.2V30C129.319 30.1 128.879 30.17 128.459 30.21C128.059 30.27 127.699 30.3 127.379 30.3C126.359 30.3 125.579 30.12 125.039 29.76C124.519 29.38 124.179 28.83 124.019 28.11L123.899 27.54C123.199 28.44 122.389 29.13 121.469 29.61C120.549 30.07 119.569 30.3 118.529 30.3C117.489 30.3 116.549 30.08 115.709 29.64C114.869 29.2 114.209 28.6 113.729 27.84C113.249 27.06 113.009 26.19 113.009 25.23ZM122.249 25.62C122.469 25.46 122.649 25.29 122.789 25.11C122.929 24.91 122.999 24.71 122.999 24.51V23.34C122.679 23.22 122.309 23.12 121.889 23.04C121.489 22.96 121.129 22.92 120.809 22.92C120.129 22.92 119.549 23.09 119.069 23.43C118.609 23.77 118.379 24.2 118.379 24.72C118.379 25 118.459 25.26 118.619 25.5C118.779 25.72 118.999 25.9 119.279 26.04C119.559 26.16 119.879 26.22 120.239 26.22C120.579 26.22 120.929 26.17 121.289 26.07C121.669 25.95 121.989 25.8 122.249 25.62ZM144.233 29.13C143.713 29.35 143.153 29.56 142.553 29.76C141.973 29.94 141.373 30.08 140.753 30.18C140.153 30.28 139.563 30.33 138.983 30.33C138.123 30.33 137.333 30.19 136.613 29.91C135.893 29.61 135.313 29.13 134.873 28.47C134.453 27.79 134.243 26.88 134.243 25.74V18.51H132.293V14.22H134.243V9.27H139.943V14.22H143.033V18.51H139.943V23.73C139.943 24.25 140.053 24.62 140.273 24.84C140.493 25.04 140.793 25.14 141.173 25.14C141.453 25.14 141.773 25.09 142.133 24.99C142.493 24.89 142.853 24.77 143.213 24.63L144.233 29.13ZM152.658 8.7H159.198L165.978 30H160.038L158.748 25.83H153.078L151.818 30H145.848L152.658 8.7ZM157.818 21.93L155.928 14.43L153.948 21.93H157.818ZM169.248 30V8.7H178.428C179.468 8.7 180.428 8.91 181.308 9.33C182.188 9.75 182.948 10.32 183.588 11.04C184.228 11.74 184.718 12.53 185.058 13.41C185.418 14.29 185.598 15.18 185.598 16.08C185.598 17.34 185.298 18.53 184.698 19.65C184.118 20.77 183.298 21.69 182.238 22.41C181.198 23.11 179.978 23.46 178.578 23.46H175.098V30H169.248ZM175.098 18.36H178.188C178.428 18.36 178.658 18.29 178.878 18.15C179.098 18.01 179.278 17.77 179.418 17.43C179.578 17.09 179.658 16.64 179.658 16.08C179.658 15.48 179.568 15.02 179.388 14.7C179.228 14.36 179.018 14.13 178.758 14.01C178.518 13.87 178.278 13.8 178.038 13.8H175.098V18.36ZM189.439 30V8.7H195.289V30H189.439Z" fill="#0055FF"/>
<path d="M7.84314 32H42.6979V34.5675H7.84314V32Z" fill="#0055FF"/>
<path d="M37.5 21.699C33.1689 25.7913 23.8076 14.8107 34.0186 10.3398L25 0L15.9814 10.3398C26.1924 14.8107 16.8174 25.7913 12.5 21.699C8.16886 17.6068 11.7736 14.0388 11.7736 14.0388L0 8.81068L2.64529 15.8301L4.4545 17.4903V20.1699L7.33279 30H25H42.6672L45.5455 20.1699V17.4903L47.3547 15.8301L50 8.81068L38.2264 14.0388C38.2264 14.0388 41.8311 17.6214 37.5 21.699Z" fill="#0055FF"/>
</svg>
